<svg width="27" height="26" viewBox="0 0 27 26" fill="red" xmlns="http://www.w3.org/2000/svg">
<path d="M19.157 11.7761C19.157 12.1969 18.816 12.5378 18.3953 12.5378C17.9747 12.5378 17.6335 12.1969 17.6335 11.7761C17.6335 11.3556 17.9747 11.0144 18.3953 11.0144C18.816 11.0144 19.157 11.3556 19.157 11.7761Z" fill="#292071"/>
<path d="M18.3945 3.67163C16.8483 3.67163 15.594 4.92291 15.594 6.47214V6.47313C15.594 6.89366 15.935 7.23445 16.3557 7.23445C16.7764 7.23445 17.1174 6.89287 17.1174 6.47214C17.1174 5.76794 17.6869 5.19507 18.3955 5.19507C19.1001 5.19507 19.6734 5.76834 19.6734 6.47313C19.6734 7.17772 19.1001 7.75099 18.3955 7.75099C17.9748 7.75099 17.6338 8.09218 17.6338 8.51271V9.32858C17.6338 9.74931 17.9748 10.0903 18.3955 10.0903C18.816 10.0903 19.1572 9.74931 19.1572 9.32858V9.1693C20.3329 8.83664 21.1968 7.75377 21.1968 6.47313C21.1968 4.92827 19.9402 3.67163 18.3945 3.67163V3.67163Z" fill="#292071"/>
<path d="M7.80933 19.4397C8.75592 18.7026 9.36649 17.5533 9.36649 16.2635C9.36649 14.044 7.56058 12.2383 5.34108 12.2383C3.12158 12.2383 1.31587 14.044 1.31587 16.2635C1.31587 17.5533 1.92644 18.7026 2.87283 19.4397C1.53705 20.2343 0.5 21.7352 0.5 23.6065V25.2383C0.5 25.659 0.840988 26 1.26172 26H9.42064C9.84117 26 10.1824 25.659 10.1824 25.2383V23.6065C10.1824 21.7356 9.14551 20.2345 7.80933 19.4397ZM2.83931 16.2635C2.83931 14.8841 3.96165 13.7617 5.34128 13.7617C6.7207 13.7617 7.84305 14.8841 7.84305 16.2635C7.84305 17.6431 6.7207 18.7655 5.34128 18.7655C3.96165 18.7655 2.83931 17.6431 2.83931 16.2635ZM8.65892 24.4766H2.02344V23.6065C2.02344 21.774 3.50601 20.2889 5.34108 20.2889C7.17357 20.2889 8.65872 21.7715 8.65872 23.6065V24.4766H8.65892Z" fill="#292071"/>
<path d="M23.2908 0H13.5001C11.7275 0 10.2908 1.43417 10.2908 3.20934V17.8952C10.2908 18.5183 11.0053 18.8827 11.5095 18.5046L14.5699 16.2093H23.2908C25.0634 16.2093 26.5001 14.7752 26.5001 13V3.20934C26.5001 1.43675 25.0659 0 23.2908 0V0ZM24.9767 13C24.9767 13.9319 24.2231 14.6859 23.2908 14.6859H14.316C14.1511 14.6859 13.9909 14.7395 13.8589 14.8382L11.8142 16.3718V3.20934C11.8142 2.27742 12.5678 1.52344 13.5001 1.52344H23.2908C24.2227 1.52344 24.9767 2.27702 24.9767 3.20934V13Z" fill="#292071"/>
</svg>
