<svg width="27" height="26" viewBox="0 0 27 26" fill="none" xmlns="http://www.w3.org/2000/svg">
<g clip-path="url(#clip0_181_889)">
<path d="M6.48093 8.85337C6.28288 8.65532 5.96093 8.65532 5.76293 8.85337C5.56438 9.05192 5.56438 9.37337 5.76293 9.57142C5.96098 9.76997 6.28293 9.76997 6.48093 9.57142C6.67943 9.37337 6.67943 9.05192 6.48093 8.85337Z" fill="#292071"/>
<path d="M13.3578 22.7356C13.5817 22.4323 13.7027 22.067 13.7027 21.6828C13.7027 20.7028 12.9054 19.9055 11.9254 19.9055H3.29287C2.81791 19.9055 2.37159 20.0904 2.03608 20.426C1.70042 20.7615 1.51557 21.2079 1.51557 21.6828C1.51557 22.0763 1.64436 22.4402 1.86165 22.735C1.05306 23.1601 0.5 24.0082 0.5 24.9834V25.4913C0.5 25.7717 0.727398 25.9991 1.00781 25.9991H14.2104C14.4908 25.9991 14.7182 25.7717 14.7182 25.4913V24.9834C14.7182 24.0086 14.1657 23.161 13.3578 22.7356ZM2.75418 21.144C2.89794 21.0002 3.08929 20.921 3.29287 20.921H11.9254C12.3454 20.921 12.687 21.2627 12.687 21.6827C12.687 21.8863 12.6078 22.0776 12.464 22.2214C12.3202 22.3653 12.1289 22.4444 11.9253 22.4444H3.29287C2.87286 22.4444 2.5312 22.1027 2.5312 21.6828C2.5312 21.4792 2.61037 21.2878 2.75418 21.144ZM1.51557 24.9834C1.51557 24.1435 2.19899 23.4601 3.03896 23.4601H3.29287H11.9254H12.1793C13.0193 23.4601 13.7027 24.1435 13.7027 24.9834H1.51557Z" fill="#292071"/>
<path d="M26.0273 21.3344C25.8548 21.0671 25.6491 20.8308 25.4156 20.6319L23.0429 18.5624C23.0244 18.5346 23.003 18.5082 22.9784 18.4837C22.9372 18.4425 22.8905 18.4103 22.8408 18.3863L21.4059 17.1348L14.7642 11.3411C15.0361 11.0569 15.1858 10.6852 15.1858 10.29C15.1858 9.88279 15.0273 9.50016 14.7392 9.21212C14.6136 9.08664 14.4708 8.98798 14.3182 8.91572L14.9327 8.30126C15.1044 8.34691 15.2809 8.37027 15.4575 8.37027C15.9775 8.37022 16.4976 8.17228 16.8935 7.77639C17.2773 7.39263 17.4887 6.88253 17.4887 6.34004C17.4887 5.79754 17.2773 5.28745 16.8936 4.90369L12.5849 0.595105C12.2011 0.211352 11.691 0 11.1483 0C10.6059 0 10.0959 0.211352 9.71224 0.595105C9.18188 1.12546 9.00729 1.8785 9.18736 2.55602L3.0568 8.68654C2.88739 8.6415 2.71113 8.61773 2.53106 8.61773C1.98831 8.61773 1.47841 8.82893 1.09496 9.21233C0.30298 10.0043 0.30298 11.293 1.09496 12.085L5.4036 16.3937C5.79964 16.7897 6.3198 16.9877 6.83995 16.9877C7.36015 16.9877 7.8803 16.7897 8.27635 16.3937C8.80671 15.8633 8.98129 15.1103 8.80122 14.4328L9.41441 13.8196C9.48809 13.9734 9.58808 14.1154 9.71229 14.2396C10 14.5273 10.3826 14.6858 10.7896 14.6858C11.1844 14.6858 11.556 14.5363 11.8406 14.2648L18.9147 22.3925C18.9342 22.423 18.957 22.452 18.9836 22.4786C18.9927 22.4877 19.0023 22.4959 19.0119 22.5042L21.1199 24.9261C21.1723 24.988 21.2283 25.0488 21.2865 25.107C21.8654 25.6857 22.6301 25.9998 23.433 25.9998C23.5745 25.9998 23.7174 25.99 23.8604 25.9702C24.8166 25.8379 25.6429 25.2659 26.1275 24.4007C26.6583 23.4525 26.6188 22.2486 26.0273 21.3344ZM10.4304 1.31325C10.6223 1.12135 10.8774 1.01562 11.1484 1.01562C11.4198 1.01562 11.6749 1.12135 11.8668 1.31325L16.1755 5.62189C16.3674 5.81379 16.4731 6.06887 16.4731 6.34009C16.4731 6.61131 16.3674 6.86639 16.1754 7.05829C15.7796 7.45423 15.1354 7.45423 14.7395 7.05829L10.4307 2.74945C10.4306 2.74935 10.4305 2.7493 10.4304 2.7492C10.0345 2.3533 10.0345 1.70914 10.4304 1.31325ZM7.5582 15.6756C7.16221 16.0716 6.51774 16.0716 6.12175 15.6756L1.81311 11.3669C1.41707 10.9709 1.41707 10.3266 1.81311 9.93048C2.00466 9.73888 2.25968 9.63336 2.53106 9.63336C2.80238 9.63336 3.05725 9.73883 3.24875 9.93027L7.55815 14.2397C7.95414 14.6355 7.95414 15.2797 7.5582 15.6756ZM9.69619 12.1016L8.2763 13.5215L3.9672 9.21243L9.71224 3.46729L14.0213 7.77639L12.5988 9.19892C12.5942 9.20329 12.5897 9.20755 12.5848 9.21238L9.71371 12.0835C9.70777 12.0893 9.70203 12.0954 9.69619 12.1016ZM11.5094 13.1609C11.5084 13.1619 11.5074 13.1629 11.5064 13.1639L11.1488 13.5215C11.0529 13.6174 10.9254 13.6702 10.7896 13.6702C10.6538 13.6702 10.5263 13.6174 10.4304 13.5215C10.3344 13.4255 10.2815 13.2978 10.2815 13.162C10.2815 13.029 10.3322 12.904 10.4243 12.8096L13.3087 9.92519C13.5064 9.73294 13.826 9.73532 14.0214 9.93048C14.1174 10.0265 14.1702 10.1541 14.1702 10.29C14.1702 10.4257 14.1175 10.553 14.0213 10.6489L13.6658 11.0044C13.6634 11.0068 13.6609 11.0093 13.6586 11.0117L11.5094 13.1609ZM12.561 13.5456L14.0451 12.0615L20.3289 17.5425L18.0359 19.8356L12.561 13.5456ZM18.7042 20.6035L21.096 18.2117L21.8631 18.8808L19.3726 21.3714L18.7042 20.6035ZM25.2414 23.9046C24.9137 24.4897 24.3596 24.8759 23.7212 24.9643C23.0843 25.0524 22.4585 24.8426 22.0044 24.3888C21.9654 24.3498 21.928 24.3091 21.8932 24.2679C21.8916 24.2659 21.8899 24.264 21.8883 24.2621L20.0408 22.1394L22.6302 19.5499L24.7503 21.3992C24.7519 21.4006 24.7535 21.402 24.7552 21.4034C24.9139 21.5384 25.0547 21.7004 25.1742 21.8855C25.5582 22.4789 25.5851 23.2904 25.2414 23.9046Z" fill="#292071"/>
<path d="M10.0715 5.26274C9.87312 5.06444 9.55167 5.06444 9.35332 5.26274L7.19877 7.41729C7.00047 7.61559 7.00047 7.93713 7.19877 8.13538C7.29795 8.23456 7.4279 8.28412 7.55785 8.28412C7.6878 8.28412 7.81775 8.23451 7.91692 8.13538L10.0715 5.98084C10.2698 5.78259 10.2698 5.46109 10.0715 5.26274Z" fill="#292071"/>
</g>
<defs>
<clipPath id="clip0_181_889">
<rect width="26" height="26" fill="white" transform="translate(0.5)"/>
</clipPath>
</defs>
</svg>
