<svg width="27" height="26" viewBox="0 0 27 26" fill="none" xmlns="http://www.w3.org/2000/svg">
<path d="M23.6418 5.9789L23.6412 5.97812C22.8738 4.96986 21.7897 4.24882 20.5632 3.93083C19.3367 3.61284 18.0389 3.71635 16.8783 4.22473L16.8745 4.22638L16.8745 4.22637C15.832 4.67626 14.8827 5.44313 14.1003 6.48745L13.4994 7.28967L12.8993 6.48674C12.1171 5.44001 11.1684 4.67387 10.127 4.22696L10.1219 4.22475L10.1219 4.22473C8.9613 3.71635 7.66349 3.61284 6.43697 3.93083C5.21044 4.24882 4.12641 4.96986 3.35901 5.97812L3.35842 5.9789C2.55011 7.03803 2.11108 8.37578 2.11108 9.86448C2.11108 11.9247 3.34854 14.3291 6.06772 17.0227L23.6418 5.9789ZM23.6418 5.9789C24.4501 7.03803 24.8891 8.37578 24.8891 9.86448C24.8891 11.9248 23.6515 14.3303 20.9325 17.0227C18.7282 19.2053 16.1083 21.0043 14.7357 21.8867C14.3668 22.1226 13.938 22.248 13.5001 22.248C13.062 22.248 12.6331 22.1225 12.2641 21.8864M23.6418 5.9789L12.2641 21.8864M12.2641 21.8864C10.8907 21.0043 8.27205 19.2053 6.06783 17.0228L12.2641 21.8864Z" stroke="#292071" stroke-width="1.5"/>
</svg>
