<svg width="59" height="46" viewBox="0 0 59 46" fill="none" xmlns="http://www.w3.org/2000/svg">
<circle cx="29" cy="23" r="22.25" fill="#1DA1F2" stroke="#292071" stroke-width="1.5"/>
<g clip-path="url(#clip0_181_918)">
<path d="M42.224 19.9811L38.2914 16.6667V11.9598C38.2914 11.474 37.8976 11.0802 37.4117 11.0802H34.6241C34.1382 11.0802 33.7443 11.474 33.7443 11.9598V12.8324L29.5606 9.30681C29.1173 8.89773 28.4466 8.89773 28.0146 9.30681L15.3625 19.9811C15.0215 20.2992 14.9078 20.7881 15.0784 21.2313C15.2489 21.6634 15.6694 21.9476 16.1356 21.9476H17.9656V35.1452C17.9656 35.7704 18.4772 36.2819 19.1024 36.2819H38.4841C39.1092 36.2819 39.6208 35.7704 39.6208 35.1452V21.9476H41.451C41.917 21.9476 42.3377 21.6634 42.5082 21.22C42.6786 20.7881 42.565 20.2992 42.224 19.9811V19.9811ZM29.6516 32.1493C29.1626 32.8199 28.1624 32.8199 27.6622 32.1493C26.0935 29.9895 23.2062 25.738 23.2062 23.5554C23.2062 20.5545 25.6501 18.1103 28.6625 18.1103C31.6749 18.1103 34.119 20.5545 34.119 23.5554C34.119 25.738 31.2315 29.9895 29.6516 32.1493Z" fill="white"/>
<path d="M28.6623 25.1812C29.9179 25.1812 30.9359 24.1633 30.9359 22.9076C30.9359 21.652 29.9179 20.634 28.6623 20.634C27.4066 20.634 26.3887 21.652 26.3887 22.9076C26.3887 24.1633 27.4066 25.1812 28.6623 25.1812Z" fill="white"/>
</g>
<defs>
<clipPath id="clip0_181_918">
<rect width="28" height="28" fill="white" transform="translate(15 9)"/>
</clipPath>
</defs>
</svg>
