<svg width="36" height="36" viewBox="0 0 36 36" fill="none" xmlns="http://www.w3.org/2000/svg">
<circle opacity="0.75" cx="18" cy="18" r="18" fill="white"/>
<path d="M26.305 12.2177C25.6327 11.3343 24.683 10.7026 23.6084 10.424C22.5339 10.1455 21.3968 10.2361 20.38 10.6815C19.47 11.0743 18.6583 11.7364 18 12.6151C17.3417 11.7343 16.53 11.0721 15.62 10.6815C14.6032 10.2361 13.4661 10.1455 12.3916 10.424C11.317 10.7026 10.3673 11.3343 9.695 12.2177C8.98602 13.1467 8.61133 14.3077 8.61133 15.5748C8.61133 17.3984 9.69887 19.399 11.8434 21.5234C13.591 23.2538 15.6561 24.6709 16.7311 25.3614C17.1099 25.6038 17.5503 25.7327 18 25.7327C18.4497 25.7327 18.8901 25.6038 19.2689 25.3614C20.3431 24.6709 22.409 23.2538 24.1566 21.5234C26.3011 19.3999 27.3887 17.3984 27.3887 15.5748C27.3887 14.3077 27.014 13.1467 26.305 12.2177Z" fill="#E21717"/>
</svg>
