<svg width="36" height="36" viewBox="0 0 36 36" fill="none" xmlns="http://www.w3.org/2000/svg">
<circle opacity="0.75" cx="18" cy="18" r="18" fill="white"/>
<path d="M25.9075 12.521L25.9071 12.5205C25.3027 11.7264 24.4489 11.1585 23.4829 10.908C22.5169 10.6576 21.4948 10.7391 20.5807 11.1395L20.5782 11.1406L20.5781 11.1406C19.7575 11.4948 19.0126 12.0974 18.4002 12.9149L17.9995 13.4497L17.5995 12.9144C16.9871 12.095 16.2426 11.4929 15.4228 11.141L15.4193 11.1395L15.4193 11.1395C14.5052 10.7391 13.4831 10.6576 12.5171 10.908C11.5511 11.1585 10.6973 11.7264 10.0929 12.5205L10.0925 12.521C9.45573 13.3553 9.11133 14.4074 9.11133 15.5748C9.11133 17.2 10.0864 19.0791 12.1952 21.1681L25.9075 12.521ZM25.9075 12.521C26.5443 13.3553 26.8887 14.4074 26.8887 15.5748C26.8887 17.2001 25.9135 19.0801 23.8048 21.1681C22.0942 22.8619 20.0626 24.2568 18.9991 24.9404C18.7008 25.1312 18.3541 25.2327 18 25.2327C17.6459 25.2327 17.2991 25.1312 17.0008 24.9404M25.9075 12.521L17.0008 24.9404M17.0008 24.9404C15.9368 24.2569 13.906 22.862 12.1953 21.1682L17.0008 24.9404Z" stroke="#848484"/>
</svg>
