<svg width="27" height="26" viewBox="0 0 27 26" fill="none" xmlns="http://www.w3.org/2000/svg">
<g clip-path="url(#clip0_181_878)">
<path d="M13.5 0C6.32029 0 0.5 5.82029 0.5 13C0.5 20.1797 6.32029 26 13.5 26C20.6797 26 26.5 20.1797 26.5 13C26.5 5.82029 20.6797 0 13.5 0ZM13.5 24.375C7.21775 24.375 2.125 19.2822 2.125 13C2.125 6.71775 7.21775 1.625 13.5 1.625C19.7822 1.625 24.875 6.71775 24.875 13C24.875 19.2822 19.7822 24.375 13.5 24.375Z" fill="#292071"/>
<path d="M13.5 14.625C14.3975 14.625 15.125 13.8975 15.125 13C15.125 12.1025 14.3975 11.375 13.5 11.375C12.6025 11.375 11.875 12.1025 11.875 13C11.875 13.8975 12.6025 14.625 13.5 14.625Z" fill="#292071"/>
<path d="M19.1875 14.625C20.085 14.625 20.8125 13.8975 20.8125 13C20.8125 12.1025 20.085 11.375 19.1875 11.375C18.29 11.375 17.5625 12.1025 17.5625 13C17.5625 13.8975 18.29 14.625 19.1875 14.625Z" fill="#292071"/>
<path d="M7.8125 14.625C8.70996 14.625 9.4375 13.8975 9.4375 13C9.4375 12.1025 8.70996 11.375 7.8125 11.375C6.91504 11.375 6.1875 12.1025 6.1875 13C6.1875 13.8975 6.91504 14.625 7.8125 14.625Z" fill="#292071"/>
</g>
<defs>
<clipPath id="clip0_181_878">
<rect width="26" height="26" fill="white" transform="translate(0.5)"/>
</clipPath>
</defs>
</svg>
